<?xml version="1.0" ?><svg height="512" id="Layer_1" version="1.1" viewBox="0 0 512 512" width="512" xml:space="preserve" xmlns="http://www.w3.org/2000/svg" xmlns:cc="http://creativecommons.org/ns#" xmlns:dc="http://purl.org/dc/elements/1.1/" xmlns:inkscape="http://www.inkscape.org/namespaces/inkscape" xmlns:rdf="http://www.w3.org/1999/02/22-rdf-syntax-ns#" xmlns:sodipodi="http://sodipodi.sourceforge.net/DTD/sodipodi-0.dtd" xmlns:svg="http://www.w3.org/2000/svg"><defs id="defs12"/><g id="g3380"><rect height="512" id="rect2987" style="fill:#282828;fill-opacity:1;fill-rule:nonzero;stroke:none" width="512" x="0" y="0"/><path d="m 271.37341,411.55555 -61.0533,-26.17333 V 100.44445 c 0,0 132.6844,22.29333 150.9466,77.53333 18.2711,55.24444 -10.2,91.02666 -20.1866,92.07555 -27.8845,2.90667 -38.4578,-14.53777 -38.4578,-14.53777 v -89.16889 l -30.2844,-12.6 -0.9645,257.80888 z m 15.8667,-39.25333 v 33.42666 c 0,0 143.7377,-46.52 164.8889,-64.44444 21.1511,-17.92889 -49.5156,-62.50666 -87.4889,-53.79111 0,0 -40.3511,1.96445 -76.92,17.92889 -0.3467,0.14667 0,30.04 0,30.04 l 92.7777,-21.8 32.6889,14.53778 -125.9466,44.10222 z m -92.3022,-2.42223 c 0,0 -18.74669,9.68889 -60.56889,9.2 -41.822304,-0.48889 -78.844506,-12.11555 -78.364506,-37.30666 0.48,-25.2 69.226706,-52.82222 138.453396,-64.45333 v 35.37333 l -73.55119,19.38222 c 0,0 -12.5911,16.00889 4.3289,16.47556 38.4578,1.07555 70.18669,-9.20889 70.18669,-9.20889 l -0.4844,30.53777 z" id="Playstation" style="fill:#ffffff;fill-opacity:1;fill-rule:evenodd"/></g></svg>