<?xml version="1.0" ?><svg enable-background="new 0 0 515.91 728.5" height="512" id="Layer_1" version="1.1" viewBox="0 0 512.00003 512" width="512" xml:space="preserve" xmlns="http://www.w3.org/2000/svg" xmlns:cc="http://creativecommons.org/ns#" xmlns:dc="http://purl.org/dc/elements/1.1/" xmlns:inkscape="http://www.inkscape.org/namespaces/inkscape" xmlns:rdf="http://www.w3.org/1999/02/22-rdf-syntax-ns#" xmlns:sodipodi="http://sodipodi.sourceforge.net/DTD/sodipodi-0.dtd" xmlns:svg="http://www.w3.org/2000/svg"><defs id="defs7"/><g id="g3808" transform="translate(124.39683,108.25)"><path d="m -124.39683,-108.25003 0,512.00005 512.00004,0 0,-512.00005 -512.00004,0 z" id="path5060" style="fill:#7eb900;fill-opacity:1;fill-rule:nonzero;stroke:none"/><path d="m 135.65209,-48.20439 c -22.21306,-0.337741 -44.714667,2.81673 -65.518457,9.50603 -18.16741,5.84162 -33.94368,12.170101 -35.09915,14.039671 -1.15542,1.86956 10.99361,6.9132 27.0556,11.261031 16.06199,4.3476902 37.57384,12.94413916 47.822597,19.0119892 23.36833,13.8353198 22.45683,13.7859198 40.80279,2.48613 20.90333,-12.87487 72.98593,-28.7971302 84.96921,-25.8855602 5.3807,1.30737 -3.56897,-4.10292 -19.88952,-12.13847 C 192.20791,-41.53694 164.2117,-47.77013 135.65209,-48.20439 z m 126.06447,44.8976812 -17.11084,9.21352 C 235.14393,10.974201 216.79165,24.833491 203.94919,36.618591 l -23.25319,21.3519 26.03188,32.46681 C 260.60208,157.4416 290.2948,214.8905 290.81962,252.91711 l 0.29249,18.1346 13.60093,-20.3282 C 325.69331,219.3761 333.18963,187.2758 331.3299,137.5287 329.94326,100.4378 327.6852,90.219201 314.80404,64.113001 306.58237,47.450091 291.35579,25.481891 280.87486,15.266631 L 261.71656,-3.3067088 z M 6.0776729,-0.38179884 c -3.65767,-0.13202 -6.83529996,1.49764004 -12.13846,4.97239004 C -20.744127,14.211461 -47.713903,55.213591 -59.148273,85.318601 -77.609774,133.9252 -67.584994,208.765 -36.626312,254.23331 c 12.204491,17.9246 14.925435,19.7796 10.968491,7.3124 C -33.500092,236.83681 6.9737829,155.4706 59.603903,90.291001 l 26.32435,-32.32051 -24.56941,-21.9369 C 47.906743,23.984991 29.813083,10.284441 21.141063,5.6143312 13.845823,1.6855512 9.7353329,-0.25005884 6.0776729,-0.38179884 z M 131.55718,101.552 98.505463,130.2163 c -58.90187,50.8213 -112.75605,119.62401 -112.75605,144.19911 0,18.3568 52.99294,52.3589 100.47135,64.4947 50.583367,12.9295 121.584747,-0.9498 164.966047,-32.1743 35.96851,-25.8889 37.05938,-34.9663 9.94477,-75.90191 C 244.42049,205.6049 169.8192,128.1955 146.47432,111.9356 L 131.55718,101.552 z" id="path3797" style="fill:#ffffff;fill-opacity:1"/></g></svg>